first trial																																					
nRows=14																																					
nColumns=38																																					
																																					
# SIMM Motion File Header:																																					
name MVN-013																																					
datacolumns 38																																					
datarows 14																																					
otherdata 1																																					
range 21.098 21.315																																					
endheader																																					
time	pelvis_tilt	pelvis_list	pelvis_rotation	pelvis_tx	pelvis_ty	pelvis_tz	hip_flexion_r	hip_adduction_r	hip_rotation_r	knee_angle_r	ankle_angle_r	subtalar_angle_r	mtp_angle_r	hip_flexion_l	hip_adduction_l	hip_rotation_l	knee_angle_l	ankle_angle_l	subtalar_angle_l	mtp_angle_l	lumbar_extension	lumbar_bending	lumbar_rotation	arm_flex_r	arm_add_r	arm_rot_r	elbow_flex_r	pro_sup_r	wrist_flex_r	wrist_dev_r	arm_flex_l	arm_add_l	arm_rot_l	elbow_flex_l	pro_sup_l	wrist_flex_l	wrist_dev_l
21.098	25.2158	-0.2509	87.4655	-0.2517	0.7782	0.4491	24.3053	-8.6088	5.3767	29.2929	-21.0684	1.3102	0	28.5846	-3.2237	2.6292	44.4282	-11.0958	3.1631	0	-6.572	-0.1119	0.9302	48.3922	-20.2444	6.5322	109.0869	5.8059	12.7169	-15.0737	22.1267	-23.0025	-1.7194	37.6506	108.9918	4.6362	12.757
21.115	25.2202	-0.2517	87.4669	-0.2518	0.7782	0.4491	24.3037	-8.6098	5.3778	29.2943	-21.0683	1.3104	0	28.5837	-3.221	2.6321	44.4302	-11.0948	3.1601	0	-6.5736	-0.103	0.9243	48.3977	-20.3099	6.5196	109.7726	5.8885	13.2248	-14.8326	22.1197	-23.005	-1.7089	37.6364	108.9755	4.6347	12.7557
21.132	25.2227	-0.2514	87.4671	-0.2518	0.7781	0.4491	24.3041	-8.6102	5.3827	29.2961	-21.0673	1.309	0	28.5842	-3.2184	2.6336	44.4322	-11.0934	3.1566	0	-6.5753	-0.0942	0.9189	48.3966	-20.3698	6.4983	110.4533	5.9785	13.697	-14.5867	22.1118	-23.0072	-1.6983	37.6258	108.9591	4.6331	12.7554
21.148	25.2237	-0.2513	87.4679	-0.2518	0.7781	0.4491	24.3068	-8.6104	5.3858	29.2989	-21.0665	1.3076	0	28.587	-3.2169	2.636	44.4343	-11.0928	3.1547	0	-6.5801	-0.0867	0.9161	48.3982	-20.4235	6.4866	111.124	6.0679	14.185	-14.3444	22.1063	-23.0085	-1.6967	37.6192	108.9517	4.6323	12.7546
21.165	25.2228	-0.2521	87.4703	-0.2518	0.7781	0.4492	24.313	-8.6102	5.3849	29.3035	-21.0663	1.3063	0	28.5933	-3.2175	2.6407	44.4369	-11.0938	3.1554	0	-6.5904	-0.0815	0.9172	48.4067	-20.4667	6.493	111.7788	6.1616	14.724	-14.107	22.1051	-23.0088	-1.7129	37.6163	108.9601	4.6329	12.7524
21.182	25.2203	-0.2532	87.4735	-0.2517	0.778	0.4492	24.3216	-8.6098	5.3821	29.3092	-21.0663	1.3049	0	28.602	-3.2192	2.6462	44.4397	-11.0956	3.1576	0	-6.6038	-0.0777	0.9209	48.4181	-20.5037	6.5089	112.4236	6.2551	15.2793	-13.8722	22.1063	-23.0081	-1.7381	37.6174	108.9775	4.6342	12.7497
21.198	25.2174	-0.2545	87.4765	-0.2517	0.778	0.4493	24.3298	-8.6099	5.3776	29.3141	-21.0663	1.3042	0	28.6106	-3.2202	2.6513	44.4426	-11.0971	3.1595	0	-6.6161	-0.074	0.9256	48.4298	-20.5464	6.5267	113.0707	6.3272	15.7976	-13.6422	22.1069	-23.006	-1.7547	37.6237	108.9921	4.635	12.748
21.215	25.2143	-0.256	87.4791	-0.2517	0.7779	0.4493	24.337	-8.6107	5.3706	29.3174	-21.0666	1.3047	0	28.6184	-3.2199	2.6549	44.4451	-11.0982	3.1607	0	-6.6261	-0.07	0.931	48.4391	-20.6019	6.5437	113.7283	6.3717	16.2554	-13.4177	22.1053	-23.0017	-1.7518	37.6392	108.9989	4.6344	12.7481
21.232	25.2108	-0.2579	87.4817	-0.2517	0.7779	0.4494	24.3437	-8.6121	5.3619	29.32	-21.0669	1.3059	0	28.6261	-3.2189	2.6581	44.4477	-11.099	3.1615	0	-6.635	-0.0661	0.9373	48.4487	-20.6631	6.5627	114.3881	6.3951	16.6763	-13.1977	22.1031	-22.996	-1.7402	37.6599	109.0028	4.6334	12.7492
21.248	25.2076	-0.2601	87.4846	-0.2517	0.7779	0.4494	24.3495	-8.6138	5.3543	29.3225	-21.0669	1.3075	0	28.6334	-3.2176	2.6624	44.4514	-11.0988	3.1618	0	-6.6425	-0.0625	0.9434	48.4636	-20.7212	6.5843	115.0372	6.3945	17.0777	-12.9816	22.1022	-22.9902	-1.7347	37.675	109.0067	4.6332	12.7501
21.265	25.2055	-0.2626	87.4877	-0.2518	0.7778	0.4494	24.3539	-8.6161	5.3492	29.3253	-21.0661	1.3097	0	28.6403	-3.2161	2.6693	44.4568	-11.0972	3.1611	0	-6.6479	-0.0593	0.9494	48.4886	-20.7698	6.6086	115.6699	6.3635	17.468	-12.7621	22.1044	-22.9845	-1.7447	37.6773	109.0138	4.6347	12.7502
21.282	25.204	-0.2657	87.4911	-0.2518	0.7778	0.4494	24.3573	-8.6187	5.3451	29.328	-21.0649	1.3122	0	28.6468	-3.2143	2.6773	44.4633	-11.0946	3.1598	0	-6.6518	-0.0565	0.9551	48.5189	-20.8153	6.6357	116.2919	6.3081	17.8391	-12.5457	22.1079	-22.9788	-1.7607	37.6741	109.0209	4.6371	12.7502
21.298	25.2024	-0.2698	87.4958	-0.2518	0.7778	0.4494	24.3601	-8.6213	5.3412	29.3305	-21.0637	1.314	0	28.6532	-3.2118	2.6847	44.4696	-11.0919	3.1588	0	-6.656	-0.0538	0.959	48.5446	-20.8681	6.6667	116.9082	6.2441	18.1836	-12.3521	22.1101	-22.9746	-1.7692	37.6761	109.0204	4.6386	12.7499
21.315	25.2009	-0.2759	87.5024	-0.2518	0.7778	0.4494	24.3624	-8.6237	5.3368	29.3326	-21.0629	1.3145	0	28.6595	-3.2082	2.6909	44.4754	-11.0897	3.1583	0	-6.6615	-0.0511	0.9594	48.5608	-20.9351	6.705	117.5208	6.1814	18.4831	-12.1895	22.1093	-22.9731	-1.7622	37.6892	109.0061	4.638	12.7493
